HIERARCHY
ROOT Hips
{
    OFFSET 0.000000 0.000000 0.000000
    CHANNELS 6 Xposition Yposition Zposition Zrotation Xrotation Yrotation
    JOINT Spine
    {
        OFFSET -0.000000 7.979263 0.000000
        CHANNELS 3 Zrotation Xrotation Yrotation
        JOINT Spine1
        {
            OFFSET -0.000000 24.719021 0.000000
            CHANNELS 3 Zrotation Xrotation Yrotation
            JOINT Neck
            {
                OFFSET -0.000000 24.617504 2.237955
                CHANNELS 3 Zrotation Xrotation Yrotation
                JOINT Head
                {
                    OFFSET -0.000000 13.623132 -1.946162
                    CHANNELS 3 Zrotation Xrotation Yrotation
                    End Site
                    {
                        OFFSET -0.000000 24.327021 0.000000
                    }
                }
            }
            JOINT LeftShoulder
            {
                OFFSET 3.885773 23.018444 -0.302444
                CHANNELS 3 Zrotation Xrotation Yrotation
                JOINT LeftArm
                {
                    OFFSET 10.447750 0.000000 0.000000
                    CHANNELS 3 Zrotation Xrotation Yrotation
                    JOINT LeftForeArm
                    {
                        OFFSET 29.090096 0.000000 0.000000
                        CHANNELS 3 Zrotation Xrotation Yrotation
                        JOINT LeftHand
                        {
                            OFFSET 28.893339 0.000000 0.000000
                            CHANNELS 3 Zrotation Xrotation Yrotation
                            End Site
                            {
                                OFFSET 14.596213 0.000000 0.000000
                            }
                        }
                    }
                }
            }
            JOINT RightShoulder
            {
                OFFSET -3.864586 23.018444 -0.302444
                CHANNELS 3 Zrotation Xrotation Yrotation
                JOINT RightArm
                {
                    OFFSET -10.447750 0.000000 0.000000
                    CHANNELS 3 Zrotation Xrotation Yrotation
                    JOINT RightForeArm
                    {
                        OFFSET -29.090096 0.000000 0.000000
                        CHANNELS 3 Zrotation Xrotation Yrotation
                        JOINT RightHand
                        {
                            OFFSET -28.893339 0.000000 0.000000
                            CHANNELS 3 Zrotation Xrotation Yrotation
                            End Site
                            {
                                OFFSET -14.596213 0.000000 0.000000
                            }
                        }
                    }
                }
            }
        }
    }
    JOINT LeftUpLeg
    {
        OFFSET 9.730808 0.000000 0.000000
        CHANNELS 3 Zrotation Xrotation Yrotation
        JOINT LeftLeg
        {
            OFFSET -0.000000 -34.800129 0.000000
            CHANNELS 3 Zrotation Xrotation Yrotation
            JOINT LeftFoot
            {
                OFFSET -0.000000 -44.597416 0.000000
                CHANNELS 3 Zrotation Xrotation Yrotation
                JOINT LeftToeBase
                {
                    OFFSET -0.000000 -6.325025 14.596213
                    CHANNELS 3 Zrotation Xrotation Yrotation
                    End Site
                    {
                        OFFSET -0.000000 0.000000 3.892323
                    }
                }
            }
        }
    }
    JOINT RightUpLeg
    {
        OFFSET -9.730808 0.000000 0.000000
        CHANNELS 3 Zrotation Xrotation Yrotation
        JOINT RightLeg
        {
            OFFSET -0.000000 -34.800129 0.000000
            CHANNELS 3 Zrotation Xrotation Yrotation
            JOINT RightFoot
            {
                OFFSET -0.000000 -44.597416 0.000000
                CHANNELS 3 Zrotation Xrotation Yrotation
                JOINT RightToeBase
                {
                    OFFSET -0.000000 -6.325025 14.596213
                    CHANNELS 3 Zrotation Xrotation Yrotation
                    End Site
                    {
                        OFFSET -0.000000 0.000000 3.892323
                    }
                }
            }
        }
    }
}
MOTION
Frames:    10
Frame Time:    0.008333
-257.680115    88.375648    28.869984    -6.994880    -1.264067    95.592613    -0.026062    -13.322990    -1.543459    2.682666    -0.954687    -1.518070    2.474727    30.887030    3.752106    -2.143668    -8.185400    3.806998    12.096433    0.698164    -10.768225    -16.442814    0.086002    10.822535    3.312236    -6.297771    0.304872    0.756940    -6.314882    -1.270947    -15.216070    0.684715    -5.505819    17.207020    10.076830    6.619964    -1.677429    -3.220381    -1.122366    -3.556218    -3.336954    3.230669    -1.112460    -7.513536    -6.327332    -0.945310    3.951213    0.396266    -3.794289    1.176769    7.873235    0.000000    0.000000    0.000000    1.834125    -5.176550    0.591590    1.358846    2.783450    -6.063990    -1.454970    0.642513    -6.059246    0.000000    0.000000    0.000000    
-257.607269    88.382973    28.886187    -6.923726    -1.233319    95.583488    -0.150512    -13.344533    -1.521303    2.771618    -0.961800    -1.480465    2.603287    30.978487    3.632179    -2.301526    -8.489704    3.663852    12.103474    0.660463    -10.905704    -16.347288    0.120278    10.745373    3.319450    -6.183702    0.343212    0.686384    -6.200770    -1.206207    -15.265122    0.697101    -5.594257    16.986666    9.970367    6.657567    -1.677124    -3.151850    -1.153186    -3.177538    -3.256123    3.156361    -1.106145    -7.361029    -6.248847    -0.944581    3.902480    0.397054    -4.028527    1.112674    7.829631    0.000000    0.000000    0.000000    1.675899    -5.139982    1.275518    1.661923    2.987500    -5.840368    -1.582402    0.476587    -6.969668    0.000000    0.000000    0.000000    
-257.539368    88.387520    28.899616    -6.858797    -1.201959    95.597794    -0.270013    -13.356387    -1.509046    2.845587    -0.984845    -1.452942    2.699762    30.835960    3.588820    -2.416327    -8.407099    3.605830    12.136914    0.658835    -11.050939    -16.809776    0.930571    10.589955    4.099854    -6.477900    0.629621    0.316681    -6.503759    -1.263159    -15.309759    0.727338    -5.680140    16.797176    9.918105    6.685118    -1.582016    -3.224504    -1.150192    -3.637762    -3.340104    3.145133    -1.106781    -7.226316    -6.199793    -0.945942    3.862159    0.423459    -4.132941    1.075241    7.761089    0.000000    0.000000    0.000000    1.664222    -5.043758    1.295501    1.666856    3.027640    -5.766472    -1.616195    0.418113    -7.077065    0.000000    0.000000    0.000000    
-257.478699    88.388359    28.919495    -6.796779    -1.191826    95.629005    -0.359853    -13.352652    -1.499678    2.882045    -1.018958    -1.431923    2.832335    30.665817    3.521438    -2.562538    -8.373243    3.519298    12.215318    0.668943    -11.199947    -16.336510    0.218238    10.510679    3.508371    -5.913767    0.605486    0.536737    -5.938236    -1.292815    -15.354753    0.714101    -5.773781    16.657534    9.930526    6.681617    -1.730768    -3.117955    -1.087088    -3.249362    -3.219580    3.008580    -1.081457    -7.133217    -6.151114    -0.961286    3.884242    0.293752    -4.234233    0.997470    7.816888    0.000000    0.000000    0.000000    1.674459    -4.975597    1.304343    1.675396    3.103167    -5.704515    -1.613639    0.343201    -7.153338    0.000000    0.000000    0.000000    
-257.419647    88.390961    28.933678    -6.735268    -1.162799    95.659920    -0.465449    -13.356993    -1.488467    2.922226    -1.023379    -1.407862    2.983392    30.572376    3.429214    -2.676064    -8.410317    3.416850    12.288040    0.654349    -11.354343    -16.056765    -0.205782    10.440103    3.206948    -5.529681    0.637416    0.594594    -5.554022    -1.273924    -15.418967    0.693349    -5.881639    16.528528    9.964381    6.693221    -1.764084    -3.089597    -1.056552    -3.348111    -3.190708    2.906925    -1.095399    -6.975415    -6.452639    -0.961055    3.770134    0.706488    -4.281664    1.014011    7.679989    0.000000    0.000000    0.000000    1.671059    -4.913075    1.281176    1.667351    3.184293    -5.681028    -1.642120    0.275461    -7.196846    0.000000    0.000000    0.000000    
-257.374573    88.393219    28.944218    -6.683986    -1.133770    95.664566    -0.547639    -13.342076    -1.458917    2.934458    -1.049114    -1.367999    3.115591    30.216366    3.378140    -2.791341    -8.090664    3.353793    12.388258    0.667723    -11.514632    -16.008818    -0.309259    10.373399    3.189935    -5.403354    0.694455    0.497409    -5.428271    -1.311792    -15.422652    0.687178    -5.993577    16.336269    9.949955    6.712939    -1.710278    -3.148465    -0.995893    -3.839585    -3.256427    2.782053    -1.105811    -6.845377    -6.734375    -0.973388    3.687847    0.996560    -4.337913    1.033691    7.667188    0.000000    0.000000    0.000000    1.658711    -4.881045    1.234377    1.666104    3.281933    -5.540882    -1.629817    0.218435    -7.293713    0.000000    0.000000    0.000000    
-257.301849    88.376923    28.971333    -6.591482    -1.110008    95.737946    -0.700767    -13.339334    -1.481366    3.035683    -1.001264    -1.372926    3.247241    30.225317    3.279796    -2.924389    -8.393408    3.234246    12.443770    0.657902    -11.669898    -15.944999    -0.367978    10.305748    3.145333    -5.362789    0.785738    0.480966    -5.390120    -1.400772    -15.474501    0.703423    -6.112486    16.172655    9.873345    6.762496    -1.778701    -3.030985    -1.018923    -3.123840    -3.127058    2.948231    -1.091652    -6.667509    -7.006555    -0.999268    3.613701    1.187015    -4.360479    0.947467    7.687426    0.000000    0.000000    0.000000    1.671959    -4.737101    1.299487    1.658416    3.294563    -5.614088    -1.694913    0.124157    -7.349793    0.000000    0.000000    0.000000    
-257.248871    88.377045    28.993229    -6.520155    -1.096220    95.759796    -0.811907    -13.329239    -1.468278    3.100557    -0.973787    -1.347068    3.317367    29.798574    3.243812    -2.960321    -8.033883    3.193205    12.545042    0.629025    -11.848718    -15.966100    -0.354759    10.262218    3.195500    -5.381253    0.894263    -0.130323    -5.404250    -1.633900    -15.485145    0.708447    -6.211652    16.023073    9.900718    6.778827    -1.901965    -2.869975    -1.096989    -2.748962    -2.966742    3.278294    -1.087186    -6.560299    -7.064326    -0.995946    3.603530    1.304300    -4.338015    0.910207    7.622287    0.000000    0.000000    0.000000    1.692284    -4.660008    1.325508    1.648619    3.340919    -5.694830    -1.675974    0.101064    -7.332448    0.000000    0.000000    0.000000    
-257.185944    88.376167    29.012257    -6.440435    -1.070119    95.760315    -0.915141    -13.331833    -1.439926    3.143425    -0.916777    -1.307810    3.517133    29.605402    3.151659    -3.147650    -7.997761    3.078440    12.655062    0.614023    -12.036787    -15.965369    -0.423242    10.235181    3.125591    -5.394007    0.917040    0.507978    -5.424971    -1.369592    -15.484126    0.720695    -6.330888    15.850409    9.887772    6.817447    -1.806318    -3.236202    -0.977073    -3.711627    -3.345265    2.895971    -1.098747    -6.432377    -7.087374    -0.981382    3.606882    1.235131    -4.382023    0.877881    7.736457    0.000000    0.000000    0.000000    1.692623    -4.572929    1.316302    1.648263    3.395902    -5.764477    -1.689745    0.063536    -7.254478    0.000000    0.000000    0.000000    
-257.130371    88.378632    29.034065    -6.371082    -1.048015    95.770943    -1.039153    -13.336548    -1.430685    3.237184    -0.859728    -1.284961    3.610697    29.279066    2.923810    -3.208719    -7.807279    2.833814    12.708633    0.574274    -12.199396    -15.951845    -0.452092    10.220534    3.136357    -5.355167    0.982854    0.380264    -5.386753    -1.451677    -15.532228    0.715515    -6.424121    15.696515    9.854693    6.852181    -1.823995    -3.254734    -0.975516    -3.278076    -3.353369    2.909737    -1.104053    -6.314420    -7.237504    -0.978860    3.584983    1.352487    -4.349277    0.868187    7.763258    0.000000    0.000000    0.000000    1.697523    -4.510528    1.235440    1.641431    3.485932    -5.533929    -1.637826    0.019229    -7.423597    0.000000    0.000000    0.000000    
